<?xml version="1.0" standalone="no"?><!DOCTYPE svg PUBLIC "-//W3C//DTD SVG 1.1//EN" "http://www.w3.org/Graphics/SVG/1.1/DTD/svg11.dtd"><svg class="icon" width="200px" height="200.00px" viewBox="0 0 1024 1024" version="1.1" xmlns="http://www.w3.org/2000/svg"><path fill="#ffffff" d="M919.345963 316.16887c-22.542412-45.12064-54.745858-85.552491-95.693456-120.206756C740.262262 125.414361 629.640816 86.562495 512.18573 86.562495s-228.077555 38.85289-311.468824 109.400642c-40.947598 34.655288-73.15002 75.086116-95.701642 120.206756-23.523763 47.048549-35.452443 97.072873-35.452443 148.677181 0 73.622788 24.730241 144.986115 71.511707 206.348672 42.443671 55.676044 101.012601 100.67184 169.997766 130.74681 2.727111 22.311145-4.205788 44.954865-20.714787 67.497277-9.676383 13.150508-11.072173 30.324656-3.657296 44.854581 7.397481 14.46341 22.094204 23.473621 38.370913 23.473621 0.748037 0 1.496074-0.032746 2.260483-0.065492 105.235786-5.337565 186.248891-72.218812 210.937177-94.962815 110.48944-5.253654 213.464743-45.218878 290.937209-113.189945 80.996732-71.055312 125.601626-165.061336 125.601626-264.702708C954.807616 413.241742 942.887123 363.218442 919.345963 316.16887zM526.798543 792.298917l-10.43977 0.282433-7.231705 7.497765c-0.748037 0.76441-71.970148 73.315796-168.227446 85.419462 16.292058-27.015284 29.192879-64.670905 17.174148-108.461247l-3.342118-12.160971-11.737322-4.713348C207.924051 705.874569 120.651382 589.948303 120.651382 464.84605c0-180.555216 175.642323-327.444681 391.534348-327.444681s391.533324 146.889465 391.533324 327.444681C903.719054 642.48382 738.167554 786.314623 526.798543 792.298917zM733.014184 383.009184 360.565521 383.009184c-14.114462 0-25.551956 11.380188-25.551956 25.419949s11.437493 25.419949 25.551956 25.419949l372.448664 0c14.097066 0 25.535583-11.380188 25.535583-25.419949S747.112274 383.009184 733.014184 383.009184zM584.254116 511.013533 360.565521 511.013533c-14.114462 0-25.551956 11.370978-25.551956 25.419949 0 14.031575 11.437493 25.41074 25.551956 25.41074l223.688595 0c14.114462 0 25.552979-11.379165 25.552979-25.41074C609.807095 522.385535 598.368578 511.013533 584.254116 511.013533z" /></svg>