<?xml version="1.0" standalone="no"?><!DOCTYPE svg PUBLIC "-//W3C//DTD SVG 1.1//EN" "http://www.w3.org/Graphics/SVG/1.1/DTD/svg11.dtd"><svg t="1688148111310" class="icon" viewBox="0 0 1024 1024" version="1.1" xmlns="http://www.w3.org/2000/svg" p-id="12344" xmlns:xlink="http://www.w3.org/1999/xlink" width="200" height="200"><path d="M511.856974 51.180053a87.006089 87.006089 0 0 1 85.470688 70.628472l5.629805 29.17263 28.149029 9.46831A369.264079 369.264079 0 0 1 675.633142 179.130184l25.590026 13.306814 25.590027-16.889418a87.006089 87.006089 0 0 1 120.784924 120.784924l-16.889418 25.590027 13.306814 25.590026a369.264079 369.264079 0 0 1 18.680719 44.526646l9.46831 28.149029 29.17263 5.629805a87.006089 87.006089 0 0 1 0 170.685476l-29.17263 5.629806-9.46831 28.149028A369.51998 369.51998 0 0 1 844.527315 675.576694l-13.306813 25.590026 16.889417 25.590027a87.006089 87.006089 0 0 1-120.784924 120.784924l-25.590026-16.889418-25.590026 13.306814a369.77588 369.77588 0 0 1-44.526646 18.680719l-28.149029 9.46831-5.629806 29.17263a87.006089 87.006089 0 0 1-170.941376 0l-5.629805-29.17263-28.149029-9.46831A370.03178 370.03178 0 0 1 348.080806 844.470867l-25.590027-13.306813-25.590026 16.889417a87.006089 87.006089 0 0 1-120.784924-120.784924l16.889417-25.590026L179.186632 675.576694a369.51998 369.51998 0 0 1-18.680719-44.526646l-9.46831-28.149029-29.17263-5.629805a87.006089 87.006089 0 0 1 0-170.685476l29.17263-5.629806 9.46831-28.149028A369.264079 369.264079 0 0 1 179.186632 348.024358l13.306814-25.590027-16.889418-25.590026a87.006089 87.006089 0 0 1 120.784924-120.784924l25.590027 16.889417 25.590026-13.306813a369.264079 369.264079 0 0 1 44.526646-18.68072l28.149029-9.468309 5.629805-29.17263A87.006089 87.006089 0 0 1 511.856974 51.180053m0-51.180053a138.186142 138.186142 0 0 0-135.62714 112.340215 418.65283 418.65283 0 0 0-51.180052 21.239722 138.186142 138.186142 0 0 0-191.925197 191.925197 418.65283 418.65283 0 0 0-21.239722 51.180053 138.186142 138.186142 0 0 0 0 271.254279 418.65283 418.65283 0 0 0 21.239722 51.180052 138.186142 138.186142 0 0 0 191.925197 191.925197 419.164631 419.164631 0 0 0 51.180052 21.239722 138.186142 138.186142 0 0 0 271.254279 0 419.164631 419.164631 0 0 0 51.180053-21.239722 138.186142 138.186142 0 0 0 191.925197-191.925197 418.65283 418.65283 0 0 0 21.239722-51.180052 138.186142 138.186142 0 0 0 0-271.254279 418.65283 418.65283 0 0 0-21.239722-51.180053 138.186142 138.186142 0 0 0-191.925197-191.925197 418.65283 418.65283 0 0 0-51.180053-21.239722A138.186142 138.186142 0 0 0 511.856974 0z" fill="#ffffff" p-id="12345"></path><path d="M511.856974 409.440421a102.360105 102.360105 0 1 1-102.360105 102.360105 102.360105 102.360105 0 0 1 102.360105-102.360105m0-51.180053a153.540158 153.540158 0 1 0 153.540157 153.540158 153.540158 153.540158 0 0 0-153.540157-153.540158zM783.878953 427.097539a12.795013 12.795013 0 0 1-12.027312-8.444709 274.836882 274.836882 0 0 0-257.947465-180.921486 12.795013 12.795013 0 0 1 0-25.590026A300.682809 300.682809 0 0 1 795.906266 409.440421a12.795013 12.795013 0 0 1-7.677008 16.377616 12.539113 12.539113 0 0 1-4.350305 1.279502zM248.535603 633.609051a12.795013 12.795013 0 0 1-11.771412-7.932908 298.379707 298.379707 0 0 1-15.609916-51.180053 12.795013 12.795013 0 0 1 25.590026-5.373905 274.580982 274.580982 0 0 0 14.330415 46.317947 12.795013 12.795013 0 0 1-11.771412 17.657118zM503.668165 811.459734a298.123806 298.123806 0 0 1-248.735055-149.189854 12.795013 12.795013 0 0 1 22.263323-12.795013 272.78968 272.78968 0 0 0 227.495333 136.39484 12.795013 12.795013 0 0 1 0 25.590027z" fill="#ffffff" p-id="12346"></path></svg>