<svg xmlns="http://www.w3.org/2000/svg" xmlns:xlink="http://www.w3.org/1999/xlink" width="667" height="1080" viewBox="0 0 667 1080" fill="none"><defs><path id="path_0"
        transform="translate(0 0) rotate(0 333.5 540)"
        d="M0,1080L667,1080L667,0L0,0L0,1080Z" /></defs><g opacity="1" transform="translate(0 0)  rotate(0 333.5 540)"><mask id="mask-0" fill="white"><use xlink:href="#path_0"></use></mask><g mask="url(#mask-0)"><path id="Rectangle 2691" fill-rule="evenodd" style="fill:#38B592" transform="translate(0 0)  rotate(0 333.5 540)" opacity="1" d="M0,1080L667,1080L667,0L0,0L0,1080Z " /></g><g mask="url(#mask-0)"><path id="Vector 1435" fill-rule="evenodd" style="fill:#38C19B" transform="translate(-60 927)  rotate(0 377 93.99)" opacity="1" d="M0,187.98L754,173.48C748.16,143.04 636.32,37.25 596,24.05C545.6,7.55 472,54.55 403,118.05C330.69,184.59 303.55,31.71 177,2.55C75.77,-20.77 37.11,122.32 32,165.23L0,187.98Z " /></g><g mask="url(#mask-0)"><path id="Vector 1434" fill-rule="evenodd" style="fill:#42CAA4" transform="translate(-28 986)  rotate(0 361 56)" opacity="1" d="M0,112L722,112C716.16,81.56 694.39,17.38 654.07,4.18C603.68,-12.32 518.22,48.19 424.54,77.89C330.87,107.6 268.43,33.33 141.88,4.18C40.65,-19.15 5.11,60.84 0,103.75L0,112Z " /></g></g></svg>