<?xml version="1.0" standalone="no"?><!DOCTYPE svg PUBLIC "-//W3C//DTD SVG 1.1//EN" "http://www.w3.org/Graphics/SVG/1.1/DTD/svg11.dtd"><svg t="1688145202915" class="icon" viewBox="0 0 1024 1024" version="1.1" xmlns="http://www.w3.org/2000/svg" p-id="8598" xmlns:xlink="http://www.w3.org/1999/xlink" width="200" height="200"><path d="M510.273727 452.736308a189.691691 189.691691 0 1 0-190.409832-189.657494 191.196367 191.196367 0 0 0 190.409832 189.657494z m266.327545 340.945765v-114.013358a38.88218 38.88218 0 0 1 38.540208-38.40342 38.129842 38.129842 0 0 1 38.540208 38.40342v114.013358h114.457922a38.369223 38.369223 0 1 1 0 76.772642h-114.457922v114.013359a38.847983 38.847983 0 0 1-38.540208 38.403419 38.129842 38.129842 0 0 1-38.540208-38.403419v-114.013359h-114.457922a38.369223 38.369223 0 1 1 0-76.772642z m-19.253006-290.162971a40.421053 40.421053 0 0 1 19.253006 32.72669 38.88218 38.88218 0 0 1-38.540209 38.40342 35.188886 35.188886 0 0 1-19.253005-5.642533 360.438151 360.438151 0 0 0-170.985841-39.531926h-75.917713A380.888058 380.888058 0 0 0 91.119038 908.823938a38.847983 38.847983 0 0 0 38.540209 38.40342H586.088849a38.369223 38.369223 0 1 1 0 76.772642H129.351472A114.663104 114.663104 0 0 1 14.893551 909.986642a455.403687 455.403687 0 0 1 328.668982-435.80871 266.053967 266.053967 0 1 1 431.807641-208.876302 269.849853 269.849853 0 0 1-100.881646 208.876302 258.120224 258.120224 0 0 1 82.722949 29.375367z" p-id="8599"></path></svg>